<svg width="948" height="496" viewBox="0 0 948 496" fill="none" xmlns="http://www.w3.org/2000/svg">
<path d="M920.826 39.3552C954.477 89.7118 954.951 157.168 927.856 210.505C899.781 265.755 843.299 297.6 781.702 295.752C722.25 293.936 662.016 261.937 636.341 206.63C612.327 154.892 619.705 80.7572 678.773 56.6731C728.657 36.3427 794.938 60.3785 816.093 110.795C837.249 161.211 812.921 221.476 770.152 252.452C716.178 291.52 645.243 273.251 590.646 245.945C524.418 212.969 463.089 158.196 385.792 154.995C324.848 152.471 264.847 182.355 226.131 228.887C206.587 252.067 193.127 279.75 186.971 309.428C180.538 341.865 185.99 380.244 207.987 406.054C232.452 434.771 271.903 432.815 299.031 408.691C328.834 382.141 335.714 340.384 340.266 302.748C348.938 230.875 348.636 150.67 308.774 87.3548C273.414 31.3394 205.452 -9.74493 138.27 10.6018C62.1086 33.6747 24.1804 112.465 10.9806 185.08C3.8277 224.475 1.72513 264.699 -0.645328 304.609C-3.0606 345.184 -5.19827 385.809 -9.52494 426.278C-17.8031 502.947 -34.5496 579.676 -74.493 646.572C-111.956 709.329 -168.749 760.844 -240.925 778.702C-308.109 795.423 -379.461 784.052 -443.163 759.378C-522.807 728.622 -593.319 678.585 -664.273 632.099L-891.872 483.009L-1001 411.513C-1003.35 409.975 -1001.24 406.134 -998.89 407.644L-774.018 554.939C-700.868 602.869 -628.591 652.571 -553.889 698.052C-487.376 738.525 -415.248 773.532 -336.669 780.726C-301.87 783.914 -266.382 781.666 -232.702 771.864C-196.147 760.931 -162.659 741.574 -134.929 715.351C-13.478 602.084 -13.2748 425.428 -3.02761 272.169C1.87653 199.156 10.2364 120.659 58.2355 61.7224C78.9629 36.226 106.487 15.2366 138.307 5.9513C167.243 -2.21164 198.067 -0.463893 225.873 10.9163C286.356 34.9811 325.727 91.8004 340.475 153.562C348.676 188.117 350.282 223.946 348.489 259.266C346.639 295.347 343.711 334.118 330.868 368.143C319.924 397.114 297.576 424.229 265.963 430.854C237.715 436.757 211.856 422.249 197.115 398.475C165.005 346.695 182.131 279.923 216.512 234.018C250.622 188.505 304.065 156.988 360.824 151.321C433.072 144.16 494.964 185.555 554.182 220.685C610.258 253.972 683.922 289.867 749.067 259.757C801.107 235.709 834.444 169.368 812.815 114.379C790.996 58.7985 711.033 34.9531 662.652 70.6606C604.654 113.437 625.265 203.676 670.812 246.746C716.359 289.815 788.493 303.414 846.844 280.269C907.559 256.144 943.026 192.382 942.86 128.63C943.013 97.7227 934.026 67.4704 917.029 41.6753C915.442 39.2942 919.254 37.0984 920.826 39.3552Z" fill="#FF4C0D"/>
</svg>
