<svg width="24" height="24" fill="none" xmlns="http://www.w3.org/2000/svg"><path fill-rule="evenodd" clip-rule="evenodd" d="M3.948 6h16.103c.522 0 .95.427.95.949v.102a.952.952 0 01-.95.949H3.948A.95.95 0 013 7.051v-.102A.95.95 0 013.948 6zm16.103 5H3.948a.95.95 0 00-.948.949v.102a.95.95 0 00.948.949h16.103a.952.952 0 00.95-.949v-.102a.952.952 0 00-.95-.949zm0 5H3.948a.95.95 0 00-.948.949v.102a.95.95 0 00.948.949h16.103a.952.952 0 00.95-.949v-.102a.952.952 0 00-.95-.949z" fill="#0D1C2E"/><mask id="a" style="mask-type:alpha" maskUnits="userSpaceOnUse" x="3" y="6" width="19" height="12"><path fill-rule="evenodd" clip-rule="evenodd" d="M3.948 6h16.103c.522 0 .95.427.95.949v.102a.952.952 0 01-.95.949H3.948A.95.95 0 013 7.051v-.102A.95.95 0 013.948 6zm16.103 5H3.948a.95.95 0 00-.948.949v.102a.95.95 0 00.948.949h16.103a.952.952 0 00.95-.949v-.102a.952.952 0 00-.95-.949zm0 5H3.948a.95.95 0 00-.948.949v.102a.95.95 0 00.948.949h16.103a.952.952 0 00.95-.949v-.102a.952.952 0 00-.95-.949z" fill="#fff"/></mask><g mask="url(#a)"><path fill="#0D1C2E" d="M0 0h24v24H0z"/></g></svg>