<?xml version="1.0" encoding="utf-8"?><svg viewBox="0 0 1440 1134" xmlns="http://www.w3.org/2000/svg" xmlns:xlink="http://www.w3.org/1999/xlink"><style>:root>svg{display:none}:root>svg:target{display:block}</style><svg fill="none" viewBox="0 0 1440 341" id="sprite--line-1" xmlns="http://www.w3.org/2000/svg"><path d="M1510.8 92.367c-27.88-64.646-101.08-105.434-170.54-88.544a149.72 149.72 0 00-84.47 55.89 134.684 134.684 0 00-24.45 97.475c4.37 33.177 20.27 65.287 46.06 86.972 23.73 19.976 57.47 30.207 88.08 23.296 31.74-7.241 52.29-34.381 53.72-66.452 1.58-35.177-15.9-69.286-40.14-93.708-25.55-25.606-60.86-41.894-97.35-35.196-36.5 6.697-60.3 35.215-65.75 71.188-6.45 42.438 10.28 82.798 17.88 123.838a202.6 202.6 0 01-9.45 107.316c-24.34 66.258-81.05 121.877-150.4 138.553-37.94 9.124-82.219 7.183-114.638-16.637-29.51-21.685-41.985-60.667-34.807-96.057 7.257-35.74 34.632-62.026 70.117-69.461 35.178-7.358 73.358 4.426 94.778 34.07 20.54 28.402 24.21 67.209 12.96 99.979-12.42 35.915-43.46 62.2-78.58 74.741-79.543 28.169-161.146-14.696-212.016-75.556-53.277-63.734-78.984-144.591-126.11-212.285-40.646-58.415-106.708-115.063-182.374-110.345-74.928 4.601-127.312 69.208-150.38 135.582-29.393 84.545-24.679 176.661-50.017 262.255-22.739 76.838-74.094 153.675-157.152 171.866a128.284 128.284 0 01-107.852-24.189C9.67 664.749-10.313 630.019-6.531 593.25c3.881-38.05 32.033-70.548 66.237-85.788 40.743-18.132 89.519-12.191 128.457 7.766 62.686 32.168 102.479 102.055 102.479 172.079-.155 82.662-59.369 149.172-124.829 192.289-36.339 23.917-75.666 42.709-114.915 61.327-2.541 1.203-.33 4.969 2.212 3.882 76.674-36.516 157.481-75.712 206.47-148.376 20.604-30.517 33.972-65.811 35.311-102.89a201.278 201.278 0 00-22.234-97.61c-33.099-65.132-103.41-111.898-178.164-102.367-35.854 4.563-68.991 23.821-88.936 54.358a99.058 99.058 0 00-7.877 95.377c14.027 31.256 42.082 55.581 73.88 67.578 33.759 12.755 71.165 9.182 104.012-4.698 75.666-31.993 117.185-107.414 136.47-183.669 10.903-43.04 15.792-87.166 21.516-131.118 6.014-46.301 13.367-93.611 32.827-136.475 15.851-34.944 40.219-67.267 72.891-87.943a137.567 137.567 0 01112.529-15.686c80.535 23.296 130.979 96.873 168.191 166.955 38.085 71.713 72.639 149.793 141.63 197.589 31.877 22.092 69.846 36.885 108.998 37.118 35.466.233 71.416-11.338 98.946-33.993a118.453 118.453 0 0043.56-87.845c1.05-31.644-10.54-64.53-35.24-85.166-24.69-20.637-59.69-26.208-90.29-17.919-31.411 8.523-56.264 31.799-65.344 63.229-8.808 30.46-3.201 65.404 16.2 90.699 22.719 29.644 61.386 40.982 97.434 40.322 69.57-1.301 132.84-43.544 169.88-100.949a223.707 223.707 0 0034.65-95.242 197.26 197.26 0 00-.93-51.717c-3.55-23.587-10.79-46.398-15.74-69.694-8.4-39.623-9.06-90.582 28.51-116.13 36.28-24.694 83.42-13.182 114.85 13.589 29.1 24.888 51.2 63.579 47.44 102.988-1.79 18.597-10.61 36.283-25.98 47.31-14.26 10.231-32.19 13.589-49.47 12.405-79.65-5.824-121.77-98.659-97.69-168.78 12.73-36.962 43.17-66.51 79.06-81.302a138.2 138.2 0 01111.87 2.99 152.124 152.124 0 0174.68 76.818c1.12 2.582 4.88.35 3.78-2.194z" fill="#FF4C0D"/></svg><svg fill="none" viewBox="0 0 750 1134" id="sprite--line-2" xmlns="http://www.w3.org/2000/svg"><path d="M65.148.556C16.651 36.835-6.255 100.284 1.533 159.599c8.077 61.445 50.733 110.28 109.431 129.047 56.664 18.083 124.115 7.966 166.741-35.637 39.87-40.79 57.598-113.151 9.918-155.529-40.268-35.78-110.769-35.184-147.504 5.311-36.735 40.495-33.862 105.422-3.848 148.871 37.886 54.811 110.857 61.203 171.431 53.633 73.429-9.043 149.495-40.27 223.448-17.552 58.307 17.912 104.933 66.07 125.947 122.837a182.437 182.437 0 0110.108 88.985c-4.734 32.727-22.654 67.101-51.989 84.115-32.631 18.931-69.179 3.952-86.727-27.828-19.263-34.958-11.846-76.624-3.607-113.628 15.754-70.66 42.744-146.187 101.413-192.617 51.993-41.046 129.757-57.157 186.33-15.602 64.134 47.115 73.664 134.038 61.932 206.905-6.372 39.529-17.782 78.158-28.836 116.579-11.232 39.064-22.743 78.083-32.138 117.684-17.722 75.05-27.479 152.977-12.089 229.355 14.43 71.65 50.83 139.132 112.941 180.002 57.783 38.14 128.845 51.18 197.135 49.12 85.34-2.48 168.49-26.19 250.87-46.39l264.25-64.8 126.71-31.086c2.73-.667 2.02-4.993-.7-4.351l-261.09 64.017c-84.93 20.84-169.63 43.64-255.22 61.65-76.19 16.02-155.86 25.01-232.35 5.63-33.872-8.58-66.587-22.51-95.081-42.97a244.067 244.067 0 01-73.378-85.844c-76.807-147.243-18.179-313.886 23.188-461.812 19.686-70.48 37.94-147.282 12.303-218.837-11.055-30.943-30.02-59.899-56.933-79.25a134.658 134.658 0 00-84.223-24.474c-65.044 2.553-121.087 43.021-155.558 96.348-19.238 29.853-32.682 63.103-42.752 97.004-10.269 34.639-20.417 72.172-19.637 108.532.674 30.961 12.719 63.971 40.322 80.743 24.67 14.972 53.884 9.903 75.7-7.607 47.519-38.134 53.603-106.798 36.468-161.531-17.01-54.274-56.909-101.787-108.543-126.029-65.741-30.809-137.884-12.383-205.421 1.024-63.959 12.717-145.371 22.036-196.774-28.047-41.063-40.003-50.409-113.658-11.705-158.307 39.08-45.145 122.421-41.005 156.152 8.774 40.445 59.647-9.036 137.875-66.324 163.321-57.289 25.446-129.836 14.251-177.15-27.001C5.476 209.392-6.738 137.459 14.646 77.4a156.63 156.63 0 0153.31-73.392c2.29-1.717-.574-5.057-2.808-3.452z" fill="#FF4C0D"/></svg><svg fill="none" viewBox="0 0 326 1134" id="sprite--line-3" xmlns="http://www.w3.org/2000/svg"><path d="M260.761.556c48.497 36.279 71.405 99.728 63.615 159.043-8.076 61.445-50.733 110.28-109.43 129.047-56.664 18.083-124.116 7.966-166.741-35.637-39.87-40.79-57.598-113.151-9.919-155.529 40.269-35.78 110.77-35.184 147.505 5.311s33.861 105.422 3.847 148.871c-37.886 54.811-110.857 61.203-171.43 53.633-73.43-9.043-149.496-40.27-223.449-17.552-58.306 17.912-104.933 66.07-125.947 122.837a182.437 182.437 0 00-10.108 88.985c4.734 32.727 22.654 67.101 51.99 84.115 32.63 18.931 69.179 3.952 86.727-27.828 19.262-34.958 11.846-76.624 3.606-113.628-15.753-70.66-42.743-146.187-101.413-192.617-51.993-41.046-129.756-57.157-186.33-15.602-64.133 47.115-73.663 134.038-61.932 206.905 6.373 39.529 17.783 78.158 28.836 116.579 11.233 39.064 22.744 78.083 32.138 117.684 17.722 75.05 27.48 152.977 12.089 229.355-14.429 71.65-50.829 139.132-112.941 180.002-57.783 38.14-128.85 51.18-197.133 49.12-85.34-2.48-168.489-26.19-250.871-46.39l-264.25-64.8-126.71-31.086c-2.73-.667-2.02-4.993.7-4.351l261.09 64.017c84.93 20.84 169.632 43.64 255.215 61.65 76.193 16.02 155.862 25.01 232.352 5.63 33.875-8.58 66.589-22.51 95.084-42.97a244.074 244.074 0 0073.377-85.844c76.808-147.243 18.18-313.886-23.187-461.812-19.687-70.48-37.94-147.282-12.304-218.837 11.056-30.943 30.021-59.899 56.933-79.25a134.658 134.658 0 0184.223-24.474c65.044 2.553 121.088 43.021 155.559 96.348 19.238 29.853 32.682 63.103 42.751 97.004 10.269 34.639 20.418 72.172 19.637 108.532-.673 30.961-12.718 63.971-40.322 80.743-24.67 14.972-53.884 9.903-75.7-7.607-47.518-38.134-53.602-106.798-36.468-161.531 17.01-54.274 56.91-101.787 108.543-126.029 65.742-30.809 137.885-12.383 205.421 1.024 63.96 12.717 145.372 22.036 196.774-28.047 41.063-40.003 50.409-113.658 11.705-158.307-39.08-45.145-122.42-41.005-156.151 8.774-40.446 59.647 9.035 137.875 66.324 163.321 57.289 25.446 129.835 14.251 177.149-27.001 49.218-42.965 61.432-114.898 40.048-174.957a156.631 156.631 0 00-53.309-73.392c-2.29-1.717.573-5.057 2.807-3.452z" fill="#FF4C0D"/></svg><svg fill="none" viewBox="0 0 60 39" id="sprite--logo" xmlns="http://www.w3.org/2000/svg"><path fill-rule="evenodd" clip-rule="evenodd" d="M59.369 0c.345 0 .631.282.631.63v37.744a.633.633 0 01-.631.626h-8.13a.63.63 0 01-.631-.626V.63a.63.63 0 01.631-.63h8.13zM24.093 0c6.132 0 12.544.286 15.705 3.505 3.111 3.169 3.447 9.476 3.46 15.602v19.267a.63.63 0 01-.632.626H34.5a.632.632 0 01-.633-.626V18.775c-.009-3.421-.202-6.937-1.936-8.707-1.493-1.523-4.279-1.872-7.175-1.945H10.023a.63.63 0 00-.63.626v29.625a.633.633 0 01-.632.626H.628A.629.629 0 010 38.374V.63C0 .282.28 0 .628 0h23.465zm1.82 15.032c.345 0 .625.282.625.626v22.716c0 .342-.28.626-.625.626h-8.54a.631.631 0 01-.632-.626V15.657a.63.63 0 01.633-.625h8.539z" fill="#F1F1F1"/></svg></svg>